name C:\Users\antoi\Documents\MyRepositories\upper-imu-dc\Results\main_tracking\Case_70\ABD01_linearAccelerations_groundFrame.mot
datacolumns 4
datarows 82
range 2.81000000 3.62000000
endheader 
time	radius_imu_x	radius_imu_y	radius_imu_z	
          2.81000000	          0.01837822	          9.83980457	          0.10285216	
          2.82000000	          0.06421662	          9.77248400	         -0.12388764	
          2.83000000	          0.08115835	          9.75073473	         -0.18387225	
          2.84000000	          0.09339592	          9.74827289	         -0.19141680	
          2.85000000	          0.10403743	          9.75111606	         -0.17887137	
          2.86000000	          0.11327363	          9.75614652	         -0.15763653	
          2.87000000	          0.11944714	          9.76166699	         -0.13172248	
          2.88000000	          0.12143761	          9.76720432	         -0.10245551	
          2.89000000	          0.11839476	          9.77268354	         -0.06983468	
          2.90000000	          0.10999615	          9.77835859	         -0.03307091	
          2.91000000	          0.09630165	          9.78469072	          0.00909877	
          2.92000000	          0.07777095	          9.79228625	          0.05820861	
          2.93000000	          0.05518578	          9.80180357	          0.11583138	
          2.94000000	          0.02956688	          9.81386464	          0.18332824	
          2.95000000	          0.00211965	          9.82898452	          0.26156967	
          2.96000000	         -0.02588432	          9.84751909	          0.35068596	
          2.97000000	         -0.05319734	          9.86964097	          0.44993088	
          2.98000000	         -0.07871083	          9.89532874	          0.55766995	
          2.99000000	         -0.10152158	          9.92438133	          0.67154151	
          3.00000000	         -0.12099576	          9.95647369	          0.78883138	
          3.01000000	         -0.13685622	          9.99121873	          0.90689733	
          3.02000000	         -0.14918323	         10.02819330	          1.02341135	
          3.03000000	         -0.15845574	         10.06692887	          1.13642306	
          3.04000000	         -0.16555117	         10.10690746	          1.24437306	
          3.05000000	         -0.17170026	         10.14755038	          1.34601391	
          3.06000000	         -0.17840232	         10.18822308	          1.44033659	
          3.07000000	         -0.18725590	         10.22825813	          1.52650202	
          3.08000000	         -0.19976238	         10.26697423	          1.60372867	
          3.09000000	         -0.21714470	         10.30375657	          1.67135467	
          3.10000000	         -0.24002075	         10.33809503	          1.72873739	
          3.11000000	         -0.26839616	         10.36955039	          1.77502213	
          3.12000000	         -0.30158729	         10.39782396	          1.80928227	
          3.13000000	         -0.33832375	         10.42275849	          1.83054800	
          3.14000000	         -0.37692216	         10.44427766	          1.83775620	
          3.15000000	         -0.41553375	         10.46238928	          1.82997484	
          3.16000000	         -0.45232768	         10.47707950	          1.80632571	
          3.17000000	         -0.48569822	         10.48826526	          1.76608119	
          3.18000000	         -0.51443447	         10.49580852	          1.70887187	
          3.19000000	         -0.53783580	         10.49955056	          1.63486436	
          3.20000000	         -0.55564469	         10.49941649	          1.54497525	
          3.21000000	         -0.56792455	         10.49566017	          1.44136172	
          3.22000000	         -0.57481052	         10.48870620	          1.32672853	
          3.23000000	         -0.57620769	         10.47933331	          1.20459151	
          3.24000000	         -0.57223152	         10.46932586	          1.08071099	
          3.25000000	         -0.56246876	         10.46029342	          0.95986425	
          3.26000000	         -0.54660529	         10.45415124	          0.84712463	
          3.27000000	         -0.52399213	         10.45239165	          0.74610693	
          3.28000000	         -0.49449409	         10.45628311	          0.65970096	
          3.29000000	         -0.45842960	         10.46641564	          0.58919972	
          3.30000000	         -0.41667716	         10.48256520	          0.53423023	
          3.31000000	         -0.37063924	         10.50385662	          0.49325232	
          3.32000000	         -0.32193245	         10.52875090	          0.46352523	
          3.33000000	         -0.27229596	         10.55555700	          0.44210831	
          3.34000000	         -0.22307008	         10.58243364	          0.42574021	
          3.35000000	         -0.17527717	         10.60771080	          0.41150622	
          3.36000000	         -0.12944594	         10.62978137	          0.39666381	
          3.37000000	         -0.08579683	         10.64716019	          0.37879722	
          3.38000000	         -0.04428137	         10.65843725	          0.35570241	
          3.39000000	         -0.00456902	         10.66225669	          0.32530707	
          3.40000000	          0.03399229	         10.65759769	          0.28612386	
          3.41000000	          0.07227193	         10.64418296	          0.23802571	
          3.42000000	          0.10799227	         10.62280419	          0.18269551	
          3.43000000	          0.14131403	         10.59254126	          0.11896113	
          3.44000000	          0.18048115	         10.54965081	          0.04171741	
          3.45000000	          0.20998779	         10.50335197	         -0.03364378	
          3.46000000	          0.24126930	         10.45617704	         -0.10318757	
          3.47000000	          0.26606484	         10.41195637	         -0.16261842	
          3.48000000	          0.29350157	         10.35773444	         -0.23127201	
          3.49000000	          0.31150464	         10.30451441	         -0.29288637	
          3.50000000	          0.31210627	         10.24530283	         -0.35900830	
          3.51000000	          0.34650110	         10.17843395	         -0.43048678	
          3.52000000	          0.34154581	         10.13455686	         -0.46775631	
          3.53000000	          0.32109504	         10.10248256	         -0.48904196	
          3.54000000	          0.31315994	         10.07009146	         -0.51112082	
          3.55000000	          0.30064366	         10.03865467	         -0.53290879	
          3.56000000	          0.28039124	         10.00702290	         -0.55570905	
          3.57000000	          0.26581334	          9.98852768	         -0.56328759	
          3.58000000	          0.23881828	          9.97701815	         -0.56464333	
          3.59000000	          0.20595455	          9.96552455	         -0.56765451	
          3.60000000	          0.18117012	          9.95982345	         -0.56607400	
          3.61000000	          0.15320075	          9.95419595	         -0.56504613	
          3.62000000	          0.12425891	          9.95056687	         -0.56285030	
